<?xml version="1.0" standalone="no"?>
<!DOCTYPE svg PUBLIC "-//W3C//DTD SVG 20010904//EN"
 "http://www.w3.org/TR/2001/REC-SVG-20010904/DTD/svg10.dtd">
<svg version="1.0" xmlns="http://www.w3.org/2000/svg"
 width="1024.000000pt" height="1024.000000pt" viewBox="0 0 1024.000000 1024.000000"
 preserveAspectRatio="xMidYMid meet">

<g transform="translate(0.000000,1024.000000) scale(0.100000,-0.100000)"
fill="#000000" stroke="none">
<path d="M3040 8680 c-8 -5 -26 -10 -40 -10 -33 0 -97 -23 -168 -59 -107 -55
-282 -261 -282 -332 0 -9 -7 -36 -16 -60 -25 -68 -43 -162 -66 -354 -15 -127
-13 -1516 2 -1815 20 -369 19 -374 -10 -405 -63 -68 -201 -135 -279 -135 -19
0 -66 10 -103 21 -66 21 -69 21 -88 4 -27 -25 -25 -46 8 -77 37 -36 192 -113
277 -138 111 -34 128 -55 79 -101 -14 -13 -30 -33 -35 -44 -5 -11 -13 -27 -18
-35 -16 -27 -31 -86 -31 -119 0 -33 37 -81 63 -81 25 0 105 92 123 143 10 29
57 22 71 -10 33 -76 37 -91 65 -218 14 -65 14 -508 0 -600 -21 -131 -31 -190
-40 -235 -6 -25 -15 -72 -22 -105 -7 -33 -16 -78 -20 -100 -5 -22 -14 -65 -20
-95 -7 -30 -16 -75 -21 -100 -9 -43 -16 -75 -39 -190 -5 -27 -15 -74 -21 -102
-26 -131 -31 -210 -32 -458 0 -285 5 -327 57 -485 20 -59 72 -168 100 -210 27
-40 218 -235 230 -235 5 0 18 -7 28 -17 30 -27 212 -124 258 -138 14 -4 39
-13 55 -20 102 -45 277 -90 525 -136 90 -16 259 -39 445 -59 50 -6 128 -15
175 -20 83 -9 195 -20 395 -40 434 -44 963 -43 1335 0 47 6 123 15 170 20 47
5 117 14 155 19 39 6 104 15 145 21 112 15 290 48 415 79 129 31 324 99 405
143 123 65 141 75 158 92 10 9 23 16 28 16 13 0 204 193 204 206 0 7 7 18 16
25 9 7 20 22 25 34 5 11 17 34 28 50 10 17 24 48 31 70 7 22 16 44 21 50 5 5
9 19 9 31 0 13 4 25 9 28 5 3 11 20 14 38 3 18 11 56 18 83 9 34 12 139 12
325 0 257 -6 336 -32 468 -6 28 -15 75 -21 102 -24 122 -30 148 -40 193 -5 26
-15 68 -20 95 -16 70 -45 213 -60 300 -26 140 -32 172 -42 237 -14 93 -14 544
0 615 20 104 42 170 68 211 24 38 27 40 47 26 12 -8 34 -36 48 -63 29 -51 71
-94 94 -94 25 0 65 59 65 96 0 42 -58 171 -88 198 -33 29 -28 52 18 70 22 9
48 16 58 16 9 1 35 9 57 20 22 11 44 19 48 20 18 0 95 40 107 55 7 8 18 15 24
15 18 0 76 63 76 82 0 9 -9 23 -21 32 -19 13 -27 12 -77 -5 -91 -31 -161 -26
-256 20 -46 23 -98 57 -121 81 l-40 41 2 112 c1 62 7 200 13 307 15 263 16
1655 1 1780 -13 112 -26 196 -41 265 -6 28 -13 62 -17 78 -3 15 -9 30 -14 33
-5 3 -9 13 -9 23 0 9 -16 48 -35 86 -45 89 -166 215 -250 257 -120 61 -175 71
-395 71 -210 0 -304 -15 -420 -66 -31 -14 -119 -95 -131 -122 -5 -11 -18 -33
-28 -50 -11 -16 -20 -40 -20 -52 -1 -12 -5 -24 -10 -27 -5 -3 -11 -23 -14 -43
-3 -21 -11 -63 -17 -93 -16 -78 -29 -178 -41 -305 -14 -141 -13 -1098 0 -1360
14 -257 28 -484 36 -558 10 -87 5 -98 -72 -134 -122 -58 -217 -99 -263 -113
-25 -7 -49 -17 -54 -22 -6 -4 -18 -8 -28 -8 -10 0 -26 -4 -36 -9 -29 -14 -87
-31 -110 -31 -11 0 -23 -4 -26 -9 -3 -5 -23 -11 -43 -14 -21 -3 -60 -11 -88
-17 -71 -16 -139 -29 -220 -41 -94 -16 -501 -16 -590 -1 -38 7 -86 14 -105 17
-19 3 -51 10 -70 15 -19 5 -57 14 -85 20 -27 7 -61 16 -75 20 -14 4 -52 14
-85 21 -33 7 -64 16 -70 21 -5 4 -18 8 -30 8 -12 0 -25 4 -30 8 -6 5 -30 15
-55 22 -46 14 -141 55 -263 113 -77 36 -82 47 -72 134 8 74 22 301 36 558 13
262 14 1219 0 1360 -12 127 -25 227 -41 305 -6 30 -14 72 -17 93 -3 20 -9 40
-14 43 -5 3 -9 13 -9 23 0 32 -48 114 -97 163 -64 66 -103 82 -296 127 -58 14
-376 14 -397 1z m468 -119 c45 -11 100 -30 122 -41 67 -34 110 -133 149 -340
39 -209 46 -351 46 -905 0 -516 -6 -669 -42 -1161 -9 -127 -13 -239 -10 -248
7 -19 238 -133 382 -189 183 -71 426 -132 680 -171 268 -41 530 -22 883 65
230 56 452 139 647 242 l80 42 0 75 c0 41 -8 188 -18 325 -37 531 -50 1275
-27 1576 33 420 90 632 185 686 112 63 447 95 611 58 408 -91 498 -402 480
-1665 -3 -250 -10 -538 -16 -640 -30 -579 -31 -598 -16 -634 24 -57 146 -150
261 -197 l40 -17 -29 -11 c-16 -6 -49 -16 -73 -21 -122 -28 -160 -76 -119
-150 14 -24 13 -25 -27 -40 -112 -41 -189 -303 -190 -640 0 -230 25 -401 142
-955 93 -437 111 -567 111 -786 0 -212 -38 -396 -114 -554 -151 -310 -531
-499 -1196 -594 -80 -11 -226 -30 -325 -41 -99 -11 -223 -25 -275 -32 -65 -9
-237 -13 -540 -13 -435 1 -618 10 -890 45 -41 5 -156 19 -255 30 -672 77 -934
137 -1209 277 -274 141 -402 312 -473 635 -14 65 -18 126 -18 288 0 239 9 309
91 695 124 581 156 791 157 1010 1 344 -96 645 -209 645 -28 0 -29 7 -9 34 22
30 19 79 -7 104 -13 11 -59 30 -103 42 -44 12 -87 23 -95 26 -8 3 20 22 65 44
82 40 184 115 217 160 23 32 23 41 4 365 -36 624 -46 1285 -26 1641 38 652
140 866 454 946 101 25 384 19 504 -11z"/>
<path d="M3112 8298 c-45 -25 -103 -90 -134 -151 -95 -187 -142 -830 -103
-1403 17 -245 36 -395 65 -511 84 -327 281 -353 393 -53 50 133 117 491 138
740 15 176 6 688 -16 895 -16 156 -47 292 -78 345 -39 67 -92 132 -119 146
-40 21 -99 17 -146 -8z"/>
<path d="M6955 8231 c-52 -24 -117 -93 -150 -159 -74 -149 -125 -554 -125
-1001 0 -171 32 -605 54 -731 48 -270 141 -411 263 -397 112 12 187 132 252
407 79 326 107 611 97 960 -17 584 -58 767 -201 899 -41 37 -49 41 -97 41 -30
0 -70 -8 -93 -19z"/>
<path d="M3995 5068 c-46 -27 -86 -110 -120 -252 -95 -393 -95 -1039 0 -1432
46 -192 107 -285 168 -253 30 17 44 35 73 98 135 293 161 1123 49 1587 -34
145 -74 227 -122 252 -26 14 -23 14 -48 0z"/>
<path d="M6155 5068 c-46 -27 -86 -110 -120 -252 -95 -393 -95 -1039 0 -1432
46 -192 107 -285 168 -253 30 17 44 35 73 98 87 188 138 666 115 1074 -18 311
-58 544 -115 668 -29 63 -43 81 -73 97 -26 14 -23 14 -48 0z"/>
</g>
</svg>
